<svg width="155" height="34" viewBox="0 0 155 34" fill="none" xmlns="http://www.w3.org/2000/svg">
<g clip-path="url(#clip0_1_10)">
<path d="M112 0H150C152.761 0 155 2.23858 155 5V29C155 31.7614 152.761 34 150 34H112V0Z" fill="#818CF8"/>
<path d="M0 5C0 2.23858 2.23858 0 5 0H112V34H5C2.23858 34 0 31.7614 0 29V5Z" fill="#475569"/>
<path d="M21.314 15.1065H18.7003C18.7003 14.6709 18.6293 14.285 18.4873 13.9489C18.3452 13.608 18.1464 13.3191 17.8907 13.0824C17.635 12.8456 17.332 12.6681 16.9816 12.5497C16.6312 12.4266 16.2429 12.3651 15.8168 12.3651C15.0024 12.3651 14.2448 12.571 13.5441 12.983C12.8433 13.3949 12.2491 13.9938 11.7614 14.7798C11.2737 15.5611 10.9352 16.5104 10.7458 17.6278C10.5706 18.7169 10.5872 19.6283 10.7955 20.3622C11.0086 21.0961 11.3779 21.6501 11.9035 22.0241C12.429 22.3935 13.0682 22.5781 13.8211 22.5781C14.2804 22.5781 14.7207 22.5213 15.1421 22.4077C15.5635 22.2893 15.9518 22.1165 16.3069 21.8892C16.6667 21.6572 16.9816 21.3755 17.2515 21.044C17.5261 20.7126 17.7392 20.3362 17.8907 19.9148H20.5398C20.322 20.6061 20.0024 21.2571 19.581 21.8679C19.1596 22.474 18.653 23.009 18.0611 23.473C17.4693 23.9323 16.8064 24.2921 16.0725 24.5526C15.3386 24.813 14.5479 24.9432 13.7003 24.9432C12.3983 24.9432 11.2832 24.6402 10.3552 24.0341C9.43187 23.4233 8.76899 22.5497 8.36653 21.4134C7.96407 20.2723 7.89304 18.9063 8.15346 17.3153C8.41388 15.767 8.91577 14.4484 9.65914 13.3594C10.4072 12.2704 11.3187 11.4394 12.3935 10.8665C13.4731 10.2888 14.6355 10 15.8807 10C16.7046 10 17.4527 10.1136 18.1251 10.3409C18.8021 10.5682 19.3822 10.902 19.8651 11.3423C20.3481 11.7779 20.715 12.313 20.966 12.9474C21.2216 13.5772 21.3376 14.2969 21.314 15.1065Z" fill="white"/>
<path d="M36.3193 17.642C36.0636 19.1856 35.5594 20.5019 34.8065 21.5909C34.0584 22.6752 33.1446 23.5062 32.065 24.0838C30.9902 24.6567 29.8326 24.9432 28.592 24.9432C27.2899 24.9432 26.1725 24.6402 25.2398 24.0341C24.307 23.4233 23.6346 22.5497 23.2227 21.4134C22.8155 20.277 22.7445 18.9134 23.0096 17.3224C23.2653 15.7836 23.7672 14.4673 24.5153 13.3736C25.2634 12.2798 26.1796 11.4441 27.2639 10.8665C28.3482 10.2888 29.5177 10 30.7724 10C32.065 10 33.173 10.3054 34.0963 10.9162C35.0243 11.5223 35.6919 12.3958 36.0991 13.5369C36.5111 14.678 36.5844 16.0464 36.3193 17.642ZM33.727 17.3224C33.9022 16.2476 33.8856 15.3409 33.6773 14.6023C33.4737 13.8636 33.1114 13.3073 32.5906 12.9332C32.0698 12.5545 31.4282 12.3651 30.6659 12.3651C29.842 12.3651 29.0797 12.571 28.379 12.983C27.6829 13.3902 27.0911 13.9867 26.6034 14.7727C26.1204 15.5587 25.789 16.5152 25.6091 17.642C25.4197 18.7216 25.4315 19.6283 25.6446 20.3622C25.8577 21.0961 26.227 21.6501 26.7525 22.0241C27.2781 22.3935 27.9197 22.5781 28.6773 22.5781C29.4964 22.5781 30.254 22.3745 30.95 21.9673C31.646 21.5601 32.2355 20.9659 32.7184 20.1847C33.2061 19.4034 33.5423 18.4493 33.727 17.3224Z" fill="white"/>
<path d="M51.9993 10.1989L49.5846 24.7443H47.2408L42.0349 14.8366H41.9212L40.2664 24.7443H37.6314L40.0462 10.1989H42.4042L47.603 20.1136H47.738L49.3786 10.1989H51.9993Z" fill="white"/>
<path d="M53.8619 12.4077L54.2312 10.1989H65.8363L65.467 12.4077H60.9713L58.9258 24.7443H56.3122L58.3577 12.4077H53.8619Z" fill="white"/>
<path d="M65.6588 24.7443L68.0736 10.1989H73.5281C74.6455 10.1989 75.5523 10.393 76.2483 10.7812C76.9443 11.1695 77.4296 11.714 77.7042 12.4148C77.9789 13.1108 78.038 13.9228 77.8818 14.8509C77.7303 15.7789 77.3988 16.5862 76.8875 17.2727C76.3809 17.9545 75.7109 18.4825 74.8775 18.8565C74.0489 19.2306 73.0759 19.4176 71.9585 19.4176H68.0736L68.4429 17.2301H71.9798C72.6332 17.2301 73.1825 17.1402 73.6275 16.9602C74.0726 16.7756 74.423 16.508 74.6787 16.1577C74.9391 15.8026 75.1119 15.367 75.1971 14.8509C75.2776 14.3348 75.2469 13.8944 75.1048 13.5298C74.9675 13.1605 74.7047 12.8812 74.3165 12.6918C73.9329 12.4976 73.4145 12.4006 72.7611 12.4006H70.3463L68.2937 24.7443H65.6588ZM74.2667 18.1534L76.7738 24.7443H73.8335L71.3903 18.1534H74.2667Z" fill="white"/>
<path d="M92.9209 17.642C92.6652 19.1856 92.1609 20.5019 91.4081 21.5909C90.66 22.6752 89.7461 23.5062 88.6666 24.0838C87.5918 24.6567 86.4341 24.9432 85.1936 24.9432C83.8915 24.9432 82.7741 24.6402 81.8413 24.0341C80.9086 23.4233 80.2362 22.5497 79.8243 21.4134C79.4171 20.277 79.346 18.9134 79.6112 17.3224C79.8669 15.7836 80.3688 14.4673 81.1169 13.3736C81.865 12.2798 82.7812 11.4441 83.8655 10.8665C84.9497 10.2888 86.1193 10 87.374 10C88.6666 10 89.7746 10.3054 90.6979 10.9162C91.6259 11.5223 92.2935 12.3958 92.7007 13.5369C93.1126 14.678 93.186 16.0464 92.9209 17.642ZM90.3285 17.3224C90.5037 16.2476 90.4871 15.3409 90.2788 14.6023C90.0752 13.8636 89.713 13.3073 89.1922 12.9332C88.6713 12.5545 88.0298 12.3651 87.2674 12.3651C86.4436 12.3651 85.6813 12.571 84.9805 12.983C84.2845 13.3902 83.6926 13.9867 83.2049 14.7727C82.722 15.5587 82.3906 16.5152 82.2106 17.642C82.0212 18.7216 82.0331 19.6283 82.2461 20.3622C82.4592 21.0961 82.8285 21.6501 83.3541 22.0241C83.8797 22.3935 84.5212 22.5781 85.2788 22.5781C86.0979 22.5781 86.8555 22.3745 87.5515 21.9673C88.2476 21.5601 88.8371 20.9659 89.32 20.1847C89.8077 19.4034 90.1439 18.4493 90.3285 17.3224Z" fill="white"/>
<path d="M94.233 24.7443L96.6478 10.1989H99.2827L97.2373 22.5355H103.644L103.274 24.7443H94.233Z" fill="white"/>
<path d="M132.466 14.7443H130.705C130.6 14.2377 130.418 13.7926 130.158 13.4091C129.902 13.0256 129.589 12.7036 129.22 12.4432C128.856 12.178 128.451 11.9792 128.006 11.8466C127.561 11.714 127.097 11.6477 126.614 11.6477C125.733 11.6477 124.935 11.8703 124.22 12.3153C123.51 12.7604 122.944 13.4162 122.523 14.2827C122.106 15.1491 121.898 16.2121 121.898 17.4716C121.898 18.7311 122.106 19.794 122.523 20.6605C122.944 21.527 123.51 22.1828 124.22 22.6278C124.935 23.0729 125.733 23.2955 126.614 23.2955C127.097 23.2955 127.561 23.2292 128.006 23.0966C128.451 22.964 128.856 22.7675 129.22 22.5071C129.589 22.242 129.902 21.9176 130.158 21.5341C130.418 21.1458 130.6 20.7008 130.705 20.1989H132.466C132.333 20.9422 132.092 21.6075 131.741 22.1946C131.391 22.7817 130.955 23.2813 130.435 23.6932C129.914 24.1004 129.329 24.4105 128.68 24.6236C128.036 24.8366 127.348 24.9432 126.614 24.9432C125.373 24.9432 124.27 24.6402 123.304 24.0341C122.338 23.428 121.578 22.5663 121.024 21.4489C120.47 20.3314 120.193 19.0057 120.193 17.4716C120.193 15.9375 120.47 14.6117 121.024 13.4943C121.578 12.3769 122.338 11.5152 123.304 10.9091C124.27 10.303 125.373 10 126.614 10C127.348 10 128.036 10.1065 128.68 10.3196C129.329 10.5327 129.914 10.8452 130.435 11.2571C130.955 11.6643 131.391 12.1615 131.741 12.7486C132.092 13.331 132.333 13.9962 132.466 14.7443Z" fill="white"/>
<path d="M135.909 10.1989L140.227 22.4432H140.397L144.716 10.1989H146.562L141.221 24.7443H139.403L134.062 10.1989H135.909Z" fill="white"/>
<path d="M117 17H107M112 12V22" stroke="white" stroke-width="2"/>
</g>
<defs>
<clipPath id="clip0_1_10">
<rect width="155" height="34" rx="5" fill="white"/>
</clipPath>
</defs>
</svg>
