<svg width="191" height="50" viewBox="0 0 191 50" fill="none" xmlns="http://www.w3.org/2000/svg">
<path d="M152.75 22.5556C152.75 20.9601 154.043 19.6667 155.639 19.6667H167.194C168.79 19.6667 170.083 20.9601 170.083 22.5556V34.1111C170.083 35.7066 168.79 37 167.194 37H155.639C154.043 37 152.75 35.7066 152.75 34.1111V22.5556Z" stroke="black" stroke-width="4"/>
<path d="M161.417 13.8889C161.417 12.2934 162.71 11 164.306 11H175.861C177.457 11 178.75 12.2934 178.75 13.8889V25.4444C178.75 27.0399 177.457 28.3333 175.861 28.3333H164.306C162.71 28.3333 161.417 27.0399 161.417 25.4444V13.8889Z" stroke="black" stroke-width="4"/>
<path d="M19.0341 39.4261C16.8561 39.4261 15.0663 38.9479 13.6648 37.9915C12.2633 37.035 11.2831 35.714 10.7244 34.0284C10.1752 32.3333 10.0852 30.3826 10.4545 28.1761C10.8144 25.9602 11.5578 24.0047 12.6847 22.3097C13.821 20.6051 15.2509 19.2794 16.9744 18.3324C18.6979 17.3759 20.625 16.8977 22.7557 16.8977C24.5265 16.8977 26.0369 17.2244 27.2869 17.8778C28.5464 18.5218 29.4839 19.4356 30.0994 20.6193C30.7244 21.7936 30.9659 23.1667 30.8239 24.7386H25.8949C25.8759 23.6875 25.5492 22.8116 24.9148 22.1108C24.2803 21.4006 23.3523 21.0455 22.1307 21.0455C21.0701 21.0455 20.0947 21.3295 19.2045 21.8977C18.3144 22.4564 17.5616 23.2614 16.946 24.3125C16.3305 25.3636 15.9044 26.6231 15.6676 28.0909C15.4214 29.5776 15.4261 30.8561 15.6818 31.9261C15.947 32.9867 16.4252 33.8059 17.1165 34.3835C17.8172 34.9517 18.7027 35.2358 19.7727 35.2358C20.5303 35.2358 21.2358 35.0937 21.8892 34.8097C22.5426 34.5161 23.1155 34.0947 23.608 33.5455C24.1098 32.9962 24.5028 32.3286 24.7869 31.5426H29.7017C29.3134 33.0862 28.6222 34.4545 27.6278 35.6477C26.643 36.8314 25.4214 37.7595 23.9631 38.4318C22.5047 39.0947 20.8617 39.4261 19.0341 39.4261Z" fill="black"/>
<path d="M42.2337 39.4261C40.084 39.4261 38.2943 38.9526 36.8643 38.0057C35.4439 37.0587 34.4448 35.7282 33.8672 34.0142C33.2895 32.3002 33.1854 30.3116 33.5547 28.0483C33.924 25.8134 34.6626 23.858 35.7706 22.1818C36.888 20.5057 38.2943 19.2083 39.9893 18.2898C41.6939 17.3617 43.602 16.8977 45.7138 16.8977C47.8634 16.8977 49.6484 17.3759 51.0689 18.3324C52.4893 19.2794 53.4884 20.6098 54.0661 22.3239C54.6532 24.0379 54.7621 26.036 54.3928 28.3182C54.0329 30.5436 53.2895 32.4896 52.1626 34.1562C51.0452 35.8229 49.639 37.1203 47.9439 38.0483C46.2488 38.9669 44.3454 39.4261 42.2337 39.4261ZM42.6598 35.3068C43.853 35.3068 44.8994 34.9848 45.799 34.3409C46.7081 33.6875 47.4515 32.8116 48.0291 31.7131C48.6162 30.6051 49.0234 29.3741 49.2507 28.0199C49.459 26.7131 49.4638 25.5294 49.2649 24.4687C49.0661 23.3987 48.6399 22.5511 47.9865 21.9261C47.3426 21.2917 46.4477 20.9744 45.3018 20.9744C44.1087 20.9744 43.0528 21.3059 42.1342 21.9687C41.2251 22.6222 40.4818 23.5028 39.9041 24.6108C39.3265 25.7093 38.9287 26.9356 38.7109 28.2898C38.4931 29.5966 38.4837 30.7803 38.6825 31.8409C38.8814 32.9015 39.3075 33.7443 39.9609 34.3693C40.6143 34.9943 41.514 35.3068 42.6598 35.3068Z" fill="black"/>
<path d="M64.2685 26.2159L62.1662 39H57.0099L60.6463 17.1818H65.5753L64.9503 20.8892H65.2202C65.902 19.6676 66.8584 18.697 68.0895 17.9773C69.3205 17.2576 70.7552 16.8977 72.3935 16.8977C73.8802 16.8977 75.1302 17.2197 76.1435 17.8636C77.1567 18.4981 77.8764 19.4309 78.3026 20.6619C78.7287 21.8835 78.795 23.3655 78.5014 25.108L76.1719 39H71.0298L73.2031 25.9034C73.4493 24.4545 73.2647 23.3182 72.6491 22.4943C72.0431 21.661 71.0677 21.2443 69.723 21.2443C68.8234 21.2443 67.9948 21.4432 67.2372 21.8409C66.4796 22.2292 65.8404 22.7926 65.3196 23.5312C64.8082 24.2699 64.4579 25.1648 64.2685 26.2159Z" fill="black"/>
<path d="M95.902 17.1818L95.2344 21.1591H82.706L83.3594 17.1818H95.902ZM87.3082 11.9545H92.4503L89.0412 32.4375C88.937 33.1288 88.956 33.6591 89.098 34.0284C89.2495 34.3883 89.491 34.6345 89.8224 34.767C90.1633 34.8996 90.5469 34.9659 90.973 34.9659C91.2855 34.9659 91.5791 34.9422 91.8537 34.8949C92.1283 34.8381 92.3461 34.7955 92.5071 34.767L92.7344 38.7869C92.4219 38.8816 92.0005 38.9858 91.4702 39.0994C90.9493 39.2131 90.3243 39.2794 89.5952 39.2983C88.2884 39.3267 87.152 39.1278 86.1861 38.7017C85.2296 38.2661 84.5289 37.5985 84.0838 36.6989C83.6482 35.7898 83.5488 34.6534 83.7855 33.2898L87.3082 11.9545Z" fill="black"/>
<path d="M96.566 39L100.202 17.1818H105.188L104.577 20.8182H104.805C105.401 19.5587 106.244 18.5881 107.333 17.9062C108.432 17.215 109.606 16.8693 110.856 16.8693C111.149 16.8693 111.467 16.8835 111.808 16.9119C112.148 16.9309 112.442 16.964 112.688 17.0114L111.893 21.7415C111.675 21.6657 111.334 21.5994 110.87 21.5426C110.415 21.4763 109.966 21.4432 109.521 21.4432C108.583 21.4432 107.712 21.6468 106.907 22.054C106.112 22.4517 105.439 23.0057 104.89 23.7159C104.341 24.4261 103.986 25.2453 103.825 26.1733L101.708 39H96.566Z" fill="black"/>
<path d="M121.14 39.4261C118.99 39.4261 117.201 38.9526 115.771 38.0057C114.35 37.0587 113.351 35.7282 112.773 34.0142C112.196 32.3002 112.092 30.3116 112.461 28.0483C112.83 25.8134 113.569 23.858 114.677 22.1818C115.794 20.5057 117.201 19.2083 118.896 18.2898C120.6 17.3617 122.508 16.8977 124.62 16.8977C126.77 16.8977 128.555 17.3759 129.975 18.3324C131.396 19.2794 132.395 20.6098 132.972 22.3239C133.559 24.0379 133.668 26.036 133.299 28.3182C132.939 30.5436 132.196 32.4896 131.069 34.1562C129.951 35.8229 128.545 37.1203 126.85 38.0483C125.155 38.9669 123.252 39.4261 121.14 39.4261ZM121.566 35.3068C122.759 35.3068 123.806 34.9848 124.705 34.3409C125.614 33.6875 126.358 32.8116 126.935 31.7131C127.522 30.6051 127.93 29.3741 128.157 28.0199C128.365 26.7131 128.37 25.5294 128.171 24.4687C127.972 23.3987 127.546 22.5511 126.893 21.9261C126.249 21.2917 125.354 20.9744 124.208 20.9744C123.015 20.9744 121.959 21.3059 121.04 21.9687C120.131 22.6222 119.388 23.5028 118.81 24.6108C118.233 25.7093 117.835 26.9356 117.617 28.2898C117.399 29.5966 117.39 30.7803 117.589 31.8409C117.788 32.9015 118.214 33.7443 118.867 34.3693C119.521 34.9943 120.42 35.3068 121.566 35.3068Z" fill="black"/>
<path d="M145.874 9.90909L141.044 39H135.902L140.732 9.90909H145.874Z" fill="black"/>
<rect x="2.5" y="2.5" width="186" height="45" rx="7.5" stroke="black" stroke-width="5"/>
</svg>
