<svg width="268" height="66" viewBox="0 0 268 66" fill="none" xmlns="http://www.w3.org/2000/svg">
<path d="M25.4774 51C22.8848 51 20.7545 50.4167 19.0863 49.2502C17.418 48.0837 16.2514 46.4726 15.5864 44.4167C14.9326 42.3494 14.8255 39.9702 15.2651 37.2791C15.6934 34.5765 16.5783 32.1915 17.9196 30.1242C19.2722 28.0452 20.9743 26.4283 23.0257 25.2733C25.0772 24.1068 27.371 23.5236 29.9072 23.5236C32.015 23.5236 33.8129 23.922 35.3007 24.719C36.7999 25.5043 37.9158 26.6189 38.6484 28.0626C39.3924 29.4947 39.6798 31.1694 39.5107 33.0866H33.6438C33.6212 31.8046 33.2324 30.7363 32.4771 29.8816C31.7219 29.0154 30.6173 28.5823 29.1632 28.5823C27.9008 28.5823 26.7398 28.9288 25.6803 29.6218C24.6207 30.3032 23.7246 31.2849 22.9919 32.5669C22.2593 33.8489 21.752 35.385 21.4702 37.1752C21.1772 38.9885 21.1828 40.5476 21.4871 41.8527C21.8028 43.1463 22.372 44.1453 23.1948 44.8499C24.0289 45.5428 25.0828 45.8893 26.3566 45.8893C27.2583 45.8893 28.0981 45.7161 28.8758 45.3696C29.6536 45.0116 30.3355 44.4976 30.9216 43.8277C31.519 43.1578 31.9868 42.3436 32.325 41.385H38.175C37.7129 43.2676 36.8901 44.9365 35.7065 46.3917C34.5342 47.8354 33.0802 48.9673 31.3443 49.7873C29.6085 50.5958 27.6528 51 25.4774 51Z" fill="black"/>
<path d="M53.0918 51C50.5331 51 48.4028 50.4225 46.7007 49.2676C45.01 48.1126 43.8208 46.4899 43.1332 44.3994C42.4456 42.309 42.3216 39.8835 42.7612 37.1232C43.2008 34.3975 44.08 32.0125 45.3988 29.9682C46.7289 27.924 48.4028 26.3417 50.4204 25.2214C52.4493 24.0895 54.7206 23.5236 57.2342 23.5236C59.7929 23.5236 61.9177 24.1068 63.6084 25.2733C65.2992 26.4283 66.4884 28.051 67.1759 30.1415C67.8748 32.232 68.0044 34.6689 67.5648 37.4524C67.1365 40.1665 66.2517 42.5399 64.9103 44.5727C63.5802 46.6054 61.9064 48.1877 59.8887 49.3195C57.8711 50.4398 55.6055 51 53.0918 51ZM53.5991 45.9759C55.0193 45.9759 56.2648 45.5833 57.3357 44.7979C58.4178 44.001 59.3026 42.9326 59.9902 41.5929C60.689 40.2416 61.1737 38.7401 61.4442 37.0885C61.6922 35.4947 61.6979 34.051 61.4611 32.7575C61.2244 31.4524 60.7172 30.4187 59.9395 29.6564C59.173 28.8826 58.1078 28.4957 56.7439 28.4957C55.3237 28.4957 54.0668 28.8999 52.9735 29.7084C51.8914 30.5053 51.0066 31.5794 50.319 32.9307C49.6314 34.2705 49.158 35.7661 48.8987 37.4177C48.6395 39.0116 48.6282 40.4552 48.8649 41.7488C49.1016 43.0423 49.6089 44.0703 50.3866 44.8325C51.1644 45.5948 52.2352 45.9759 53.5991 45.9759Z" fill="black"/>
<path d="M79.3199 34.8884L76.8175 50.4803H70.6801L75.0084 23.8701H80.8754L80.1315 28.3917H80.4527C81.2643 26.9018 82.4027 25.718 83.8681 24.8402C85.3334 23.9625 87.0411 23.5236 88.9911 23.5236C90.7608 23.5236 92.2486 23.9163 93.4547 24.7016C94.6608 25.4755 95.5175 26.6131 96.0247 28.1145C96.5319 29.6044 96.6108 31.4119 96.2614 33.5371L93.4885 50.4803H87.3679L89.9548 34.5072C90.2479 32.7401 90.0281 31.3542 89.2954 30.3494C88.574 29.333 87.413 28.8248 85.8124 28.8248C84.7416 28.8248 83.7553 29.0674 82.8536 29.5525C81.9519 30.026 81.191 30.7132 80.5711 31.6141C79.9624 32.5149 79.5453 33.6064 79.3199 34.8884Z" fill="black"/>
<path d="M116.973 23.8701L116.179 28.7209H101.266L102.044 23.8701H116.973ZM106.744 17.4947H112.865L108.807 42.4764C108.683 43.3195 108.705 43.9663 108.875 44.4167C109.055 44.8556 109.342 45.1559 109.737 45.3176C110.143 45.4793 110.599 45.5602 111.106 45.5602C111.478 45.5602 111.828 45.5313 112.155 45.4735C112.481 45.4042 112.741 45.3523 112.932 45.3176L113.203 50.2204C112.831 50.3359 112.329 50.4629 111.698 50.6015C111.078 50.7401 110.334 50.821 109.466 50.8441C107.911 50.8787 106.558 50.6362 105.408 50.1165C104.27 49.5852 103.436 48.7709 102.906 47.6737C102.388 46.565 102.269 45.179 102.551 43.5159L106.744 17.4947Z" fill="black"/>
<path d="M117.764 50.4803L122.092 23.8701H128.027L127.3 28.3051H127.57C128.28 26.769 129.284 25.5852 130.58 24.7536C131.887 23.9105 133.285 23.4889 134.773 23.4889C135.122 23.4889 135.5 23.5063 135.906 23.5409C136.311 23.564 136.661 23.6044 136.954 23.6622L136.007 29.4312C135.748 29.3388 135.342 29.2579 134.79 29.1886C134.249 29.1078 133.713 29.0674 133.184 29.0674C132.068 29.0674 131.031 29.3157 130.073 29.8123C129.126 30.2974 128.325 30.9731 127.672 31.8393C127.018 32.7055 126.595 33.7045 126.404 34.8364L123.884 50.4803H117.764Z" fill="black"/>
<path d="M147.014 51C144.455 51 142.325 50.4225 140.623 49.2676C138.932 48.1126 137.743 46.4899 137.055 44.3994C136.368 42.309 136.244 39.8835 136.683 37.1232C137.123 34.3975 138.002 32.0125 139.321 29.9682C140.651 27.924 142.325 26.3417 144.343 25.2214C146.372 24.0895 148.643 23.5236 151.156 23.5236C153.715 23.5236 155.84 24.1068 157.531 25.2733C159.221 26.4283 160.411 28.051 161.098 30.1415C161.797 32.232 161.927 34.6689 161.487 37.4524C161.059 40.1665 160.174 42.5399 158.833 44.5727C157.502 46.6054 155.829 48.1877 153.811 49.3195C151.793 50.4398 149.528 51 147.014 51ZM147.521 45.9759C148.942 45.9759 150.187 45.5833 151.258 44.7979C152.34 44.001 153.225 42.9326 153.912 41.5929C154.611 40.2416 155.096 38.7401 155.366 37.0885C155.614 35.4947 155.62 34.051 155.383 32.7575C155.147 31.4524 154.639 30.4187 153.862 29.6564C153.095 28.8826 152.03 28.4957 150.666 28.4957C149.246 28.4957 147.989 28.8999 146.896 29.7084C145.814 30.5053 144.929 31.5794 144.241 32.9307C143.554 34.2705 143.08 35.7661 142.821 37.4177C142.562 39.0116 142.55 40.4552 142.787 41.7488C143.024 43.0423 143.531 44.0703 144.309 44.8325C145.087 45.5948 146.157 45.9759 147.521 45.9759Z" fill="black"/>
<path d="M176.455 15L170.706 50.4803H164.585L170.334 15H176.455Z" fill="black"/>
<path d="M196.455 23L196.455 43M206.455 33L186.455 33" stroke="black" stroke-width="5" stroke-linecap="round"/>
<path d="M219.455 31.3333C219.455 29.4924 220.947 28 222.788 28H236.121C237.962 28 239.455 29.4924 239.455 31.3333V44.6667C239.455 46.5076 237.962 48 236.121 48H222.788C220.947 48 219.455 46.5076 219.455 44.6667V31.3333Z" stroke="black" stroke-width="5"/>
<path d="M229.455 21.3333C229.455 19.4924 230.947 18 232.788 18H246.121C247.962 18 249.455 19.4924 249.455 21.3333V34.6667C249.455 36.5076 247.962 38 246.121 38H232.788C230.947 38 229.455 36.5076 229.455 34.6667V21.3333Z" stroke="black" stroke-width="5"/>
<rect x="2.5" y="2.5" width="262.455" height="61" rx="12.5" stroke="black" stroke-width="5"/>
</svg>
